<?xml version="1.0" standalone="no"?><!DOCTYPE svg PUBLIC "-//W3C//DTD SVG 1.1//EN" "http://www.w3.org/Graphics/SVG/1.1/DTD/svg11.dtd"><svg class="icon" width="200px" height="200.00px" viewBox="0 0 1024 1024" version="1.1" xmlns="http://www.w3.org/2000/svg"><path d="M511.977792 0C229.694903 0 0 229.672696 0 511.977792c0 282.327304 229.694903 512 512 512s511.977792-229.717111 511.977792-512C1023.977792 229.672696 794.282889 0 511.977792 0z m298.472349 317.548818l-183.169638 72.774843a167.091217 167.091217 0 0 0-224.742572-5.285448l-123.075428-142.7293C341.955151 188.321839 423.146736 155.454348 512 155.454348c124.874257 0 234.758274 64.646801 298.450141 162.09447z m-298.472349 550.974626c-106.086489 0-201.246758-46.836174-266.604207-120.632574l141.108133-124.874258a167.15784 167.15784 0 0 0 125.496074 56.740838c83.900933 0 153.233572-61.670961 165.625504-142.12969l187.211451-74.39601c2.198569 15.98959 3.730904 32.156842 3.730905 48.723834-0.022208 196.627543-159.962524 356.567859-356.56786 356.56786z" /></svg>
