<?xml version="1.0" standalone="no"?><!DOCTYPE svg PUBLIC "-//W3C//DTD SVG 1.1//EN" "http://www.w3.org/Graphics/SVG/1.1/DTD/svg11.dtd"><svg class="icon" width="200px" height="200.00px" viewBox="0 0 1024 1024" version="1.1" xmlns="http://www.w3.org/2000/svg"><path d="M956.8 128H67.2A67.2 67.2 0 0 0 0 195.2v633.6A67.2 67.2 0 0 0 67.2 896h889.6a67.2 67.2 0 0 0 67.2-67.2V195.2A67.2 67.2 0 0 0 956.8 128zM64 192h896v288h-220.224l-55.168-110.304a31.584 31.584 0 0 0-29.952-17.696 32 32 0 0 0-28.384 20.096l-97.312 243.2-114.976-306.56a32 32 0 0 0-58.592-3.2L268.224 480H64z m896 640H64v-288h224a32 32 0 0 0 28.64-17.696l63.168-126.304 118.24 315.328a32 32 0 0 0 29.632 20.736h0.32a32 32 0 0 0 29.728-20.128l101.472-253.888 32 64.256a32 32 0 0 0 28.8 17.696H960z"  /></svg>
